<svg width="184" height="184" viewBox="0 0 184 184" fill="none" xmlns="http://www.w3.org/2000/svg">
<path d="M92 178.25C139.635 178.25 178.25 139.635 178.25 92C178.25 44.3654 139.635 5.75 92 5.75C44.3654 5.75 5.75 44.3654 5.75 92C5.75 139.635 44.3654 178.25 92 178.25Z" stroke="#5F2EEA" stroke-width="10"/>
<path d="M64.9412 70.3532C64.9412 55.4089 77.0556 43.2944 91.9999 43.2944C106.944 43.2944 119.059 55.4089 119.059 70.3532C119.059 85.2974 106.944 97.4119 91.9999 97.4119C77.0556 97.4119 64.9412 85.2974 64.9412 70.3532ZM91.9999 86.5885C100.966 86.5885 108.235 79.3197 108.235 70.3532C108.235 61.3866 100.966 54.1178 91.9999 54.1178C83.0333 54.1178 75.7646 61.3866 75.7646 70.3532C75.7646 79.3197 83.0333 86.5885 91.9999 86.5885Z" fill="#5F2EEA"/>
<path d="M61.3863 115.504C53.2673 123.623 48.7061 134.635 48.7061 146.118H59.5295C59.5295 137.506 62.9503 129.247 69.04 123.157C75.1292 117.068 83.3881 113.647 92.0001 113.647C100.612 113.647 108.871 117.068 114.96 123.157C121.049 129.247 124.471 137.506 124.471 146.118H135.294C135.294 134.635 130.733 123.623 122.613 115.504C114.494 107.385 103.482 102.823 92.0001 102.823C80.5177 102.823 69.5057 107.385 61.3863 115.504Z" fill="#5F2EEA"/>
</svg>
